<?xml version="1.0" encoding="UTF-8"?>
<svg width="20px" height="20px" viewBox="0 0 20 20" version="1.1" xmlns="http://www.w3.org/2000/svg" xmlns:xlink="http://www.w3.org/1999/xlink">
    <!-- Generator: Sketch 46.2 (44496) - http://www.bohemiancoding.com/sketch -->
    <title>el-icon-warning</title>
    <desc>Created with Sketch.</desc>
    <defs></defs>
    <g id="监管平台" stroke="none" stroke-width="1" fill="none" fill-rule="evenodd">
        <g id="弹窗提示样式" transform="translate(-158.000000, -145.000000)" fill="#FF3636">
            <path d="M168,145 C166.621788,145 165.323723,145.260415 164.105769,145.781249 C162.887815,146.302086 161.826126,147.015218 160.920673,147.920674 C160.01522,148.826126 159.302086,149.887815 158.78125,151.105769 C158.260414,152.323723 158,153.621788 158,155 C158,156.378212 158.260414,157.676277 158.78125,158.894231 C159.302086,160.112185 160.01522,161.173874 160.920673,162.079327 C161.826126,162.98478 162.887815,163.697914 164.105769,164.21875 C165.323723,164.739586 166.621788,165 168,165 C169.378212,165 170.676277,164.739586 171.894231,164.21875 C173.112185,163.697914 174.173874,162.98478 175.079326,162.079327 C175.984782,161.173874 176.697914,160.112185 177.218751,158.894231 C177.739585,157.676277 178,156.378212 178,155 C178,153.621788 177.739585,152.323723 177.218751,151.105769 C176.697914,149.887815 175.984782,148.826126 175.079326,147.920674 C174.173874,147.015218 173.112185,146.302086 171.894231,145.781249 C170.676277,145.260415 169.378212,145 168,145 L168,145 Z M168,160.673077 C167.679486,160.673077 167.407052,160.560898 167.182692,160.336538 C166.958332,160.112178 166.846154,159.839745 166.846154,159.519231 C166.846154,159.198717 166.958332,158.926283 167.182692,158.701923 C167.407052,158.477563 167.679486,158.365385 168,158.365385 C168.320514,158.365385 168.592948,158.477563 168.817308,158.701923 C169.041668,158.926283 169.153846,159.198717 169.153846,159.519231 C169.153846,159.839745 169.041668,160.112178 168.817308,160.336538 C168.592948,160.560898 168.320514,160.673077 168,160.673077 L168,160.673077 Z M169.153846,155.673077 C169.153846,155.993591 169.041668,156.266025 168.817308,156.490385 C168.592948,156.714745 168.320514,156.826923 168,156.826923 C167.679486,156.826923 167.407052,156.714745 167.182692,156.490385 C166.958332,156.266025 166.846154,155.993591 166.846154,155.673077 L166.846154,150.288462 C166.846154,149.967948 166.958332,149.695514 167.182692,149.471154 C167.407052,149.246794 167.679486,149.134615 168,149.134615 C168.320514,149.134615 168.592948,149.246794 168.817308,149.471154 C169.041668,149.695514 169.153846,149.967948 169.153846,150.288462 L169.153846,155.673077 Z" id="el-icon-warning"></path>
        </g>
    </g>
</svg>